<svg xmlns="http://www.w3.org/2000/svg" xmlns:xlink="http://www.w3.org/1999/xlink" viewBox="0 0 334.16 108.63"><defs><style>.cls-1{fill:#231f20;}.cls-2{fill:url(#linear-gradient);}.cls-3{fill:url(#linear-gradient-2);}.cls-4{fill:#71b747;}</style><linearGradient id="linear-gradient" x1="298.03" y1="36.93" x2="298.03" gradientUnits="userSpaceOnUse"><stop offset="0" stop-color="#feca0e"/><stop offset="0.12" stop-color="#fdc10f"/><stop offset="0.31" stop-color="#f9a913"/><stop offset="0.55" stop-color="#f3821a"/><stop offset="0.82" stop-color="#eb4c23"/><stop offset="1" stop-color="#e52529"/></linearGradient><linearGradient id="linear-gradient-2" x1="334.16" y1="42.22" x2="0" y2="42.22" gradientUnits="userSpaceOnUse"><stop offset="0" stop-color="#76b947"/><stop offset="0" stop-color="#76b947"/><stop offset="0.44" stop-color="#4fb14a"/><stop offset="0.79" stop-color="#37ac4c"/><stop offset="1" stop-color="#2eaa4d"/></linearGradient></defs><title>Logo-summitagro</title><g id="Capa_2" data-name="Capa 2"><g id="Layer_1" data-name="Layer 1"><path class="cls-1" d="M4.61,92.73h-4V91.27h9.79v1.46h-4v11.76H4.61Z"/><path class="cls-1" d="M12.41,100a3,3,0,0,0,3.22,3.3,6.61,6.61,0,0,0,2.63-.47l.32,1.21a7.84,7.84,0,0,1-3.18.61,4.42,4.42,0,0,1-4.67-4.79c0-2.88,1.7-5.14,4.47-5.14,3.1,0,3.91,2.72,3.91,4.46a4.53,4.53,0,0,1-.07.82Zm5-1.24c0-1.08-.46-2.8-2.38-2.8a2.86,2.86,0,0,0-2.65,2.8Z"/><path class="cls-1" d="M28.89,104.16a6.65,6.65,0,0,1-2.73.55,4.51,4.51,0,0,1-4.72-4.86,4.85,4.85,0,0,1,5.1-5.07,5.36,5.36,0,0,1,2.39.52l-.38,1.31a4.36,4.36,0,0,0-2-.45,3.3,3.3,0,0,0-3.35,3.61,3.25,3.25,0,0,0,3.3,3.55,5.11,5.11,0,0,0,2.12-.45Z"/><path class="cls-1" d="M31.8,97.58c0-1,0-1.79-.08-2.58h1.53l.11,1.55h0a3.54,3.54,0,0,1,3.15-1.77c1.31,0,3.36.8,3.36,4v5.66H38.16V99c0-1.52-.57-2.83-2.2-2.83A2.47,2.47,0,0,0,33.65,98a2.37,2.37,0,0,0-.12.8v5.72H31.8Z"/><path class="cls-1" d="M47.43,104.71a4.53,4.53,0,0,1-4.54-4.88c0-3.19,2.1-5.05,4.7-5.05s4.57,2,4.57,4.88c0,3.53-2.45,5.06-4.7,5.06Zm.07-1.3c1.64,0,2.88-1.55,2.88-3.7,0-1.6-.8-3.63-2.85-3.63s-2.9,1.88-2.9,3.69c0,2.08,1.18,3.65,2.85,3.65Z"/><path class="cls-1" d="M55.22,90.57h1.72v13.92H55.22Z"/><path class="cls-1" d="M64.55,104.71c-2.54,0-4.54-1.89-4.54-4.88,0-3.19,2.1-5.05,4.71-5.05s4.57,2,4.57,4.88a4.66,4.66,0,0,1-4.72,5.06Zm.08-1.3c1.65,0,2.88-1.55,2.88-3.7,0-1.6-.8-3.63-2.84-3.63S61.75,98,61.75,99.77c0,2.08,1.19,3.65,2.85,3.65Z"/><path class="cls-1" d="M80.49,103.1c0,2.2-.46,3.51-1.35,4.35a5.23,5.23,0,0,1-3.47,1.13,6.11,6.11,0,0,1-3.17-.78l.44-1.33a5.13,5.13,0,0,0,2.77.76c1.77,0,3.06-.92,3.06-3.33v-1h0a3.38,3.38,0,0,1-3,1.58c-2.35,0-4-2-4-4.64,0-3.22,2.1-5,4.29-5a3.18,3.18,0,0,1,3,1.63h0L79,95h1.53c-.06.67-.07,1.43-.07,2.59Zm-1.72-4.37a2.31,2.31,0,0,0-.1-.77,2.46,2.46,0,0,0-2.4-1.84c-1.66,0-2.84,1.39-2.84,3.61,0,1.85,1,3.42,2.81,3.42a2.49,2.49,0,0,0,2.4-1.79,3,3,0,0,0,.14-.92Z"/><path class="cls-1" d="M87.83,91l-2.41,2.8H84.21L85.94,91Zm-3.62,13.45V95h1.73v9.49Z"/><path class="cls-1" d="M96.37,102.22a16.53,16.53,0,0,0,.13,2.27H95l-.15-1.19h-.06a3.5,3.5,0,0,1-2.9,1.41,2.71,2.71,0,0,1-2.9-2.72c0-2.3,2-3.55,5.71-3.54v-.2a2,2,0,0,0-2.16-2.2,4.6,4.6,0,0,0-2.49.71l-.39-1.16a6.12,6.12,0,0,1,3.13-.83c2.93,0,3.64,2,3.64,3.89Zm-1.69-2.57c-1.89,0-4,.29-4,2.14a1.51,1.51,0,0,0,1.61,1.65,2.42,2.42,0,0,0,2.34-1.59,2,2,0,0,0,.08-.55Z"/><path class="cls-1" d="M102.73,107.27a2.72,2.72,0,0,0,1.87-.72c.47-.52.67-1.29.67-3.57V95H107v8.66c0,1.84-.3,3-1.14,3.89a4.35,4.35,0,0,1-2.94,1.08Zm3.38-14a1.1,1.1,0,1,1,0-2.21,1.1,1.1,0,1,1,0,2.21Z"/><path class="cls-1" d="M117.4,102.22a16,16,0,0,0,.14,2.27H116l-.15-1.19h-.08a3.47,3.47,0,0,1-2.89,1.41A2.71,2.71,0,0,1,110,102c0-2.3,2-3.55,5.71-3.54v-.2a2,2,0,0,0-2.16-2.2,4.59,4.59,0,0,0-2.49.71l-.4-1.16a6.13,6.13,0,0,1,3.14-.83c2.92,0,3.63,2,3.63,3.89Zm-1.68-2.57c-1.88,0-4,.29-4,2.14a1.51,1.51,0,0,0,1.6,1.65,2.43,2.43,0,0,0,2.35-1.59,2.1,2.1,0,0,0,.09-.55Z"/><path class="cls-1" d="M121.05,98.1c0-1.22,0-2.2-.09-3.11h1.56l.1,1.63h0A3.67,3.67,0,0,1,126,94.78c2.3,0,4,1.95,4,4.84,0,3.41-2.1,5.1-4.32,5.1a3.32,3.32,0,0,1-2.92-1.49h0v5.16h-1.72Zm1.72,2.52a2.88,2.88,0,0,0,.08.71,2.64,2.64,0,0,0,2.57,2c1.83,0,2.88-1.49,2.88-3.67,0-1.9-1-3.53-2.81-3.53a2.73,2.73,0,0,0-2.61,2.12,3.5,3.5,0,0,0-.11.71Z"/><path class="cls-1" d="M137,104.71c-2.55,0-4.55-1.89-4.55-4.88,0-3.19,2.09-5.05,4.7-5.05s4.56,2,4.56,4.88c0,3.53-2.45,5.06-4.7,5.06Zm.06-1.3c1.65,0,2.88-1.55,2.88-3.7,0-1.6-.8-3.63-2.84-3.63s-2.9,1.88-2.9,3.69c0,2.08,1.18,3.65,2.85,3.65Z"/><path class="cls-1" d="M144.75,97.58c0-1,0-1.79-.06-2.58h1.53l.1,1.55h0a3.53,3.53,0,0,1,3.14-1.77c1.31,0,3.35.8,3.35,4v5.66h-1.73V99c0-1.52-.56-2.83-2.19-2.83A2.48,2.48,0,0,0,146.61,98a2.37,2.37,0,0,0-.12.8v5.72h-1.74Z"/><path class="cls-1" d="M157.51,100a3,3,0,0,0,3.24,3.3,6.8,6.8,0,0,0,2.64-.47l.29,1.21a7.69,7.69,0,0,1-3.17.61,4.42,4.42,0,0,1-4.66-4.79c0-2.88,1.69-5.14,4.47-5.14,3.11,0,3.91,2.72,3.91,4.46a4.21,4.21,0,0,1-.06.82Zm5-1.24c0-1.08-.46-2.8-2.39-2.8-1.76,0-2.49,1.61-2.64,2.8Z"/><path class="cls-1" d="M167,102.75a4.88,4.88,0,0,0,2.29.66c1.24,0,1.84-.6,1.84-1.4s-.5-1.29-1.76-1.75c-1.72-.63-2.53-1.56-2.53-2.68,0-1.54,1.25-2.8,3.28-2.8a4.37,4.37,0,0,1,2.31.6L172,96.61a3.89,3.89,0,0,0-1.94-.55c-1,0-1.57.59-1.57,1.29s.55,1.16,1.79,1.64c1.63.6,2.49,1.42,2.49,2.86,0,1.68-1.31,2.86-3.52,2.86a5.38,5.38,0,0,1-2.68-.67Z"/><path class="cls-1" d="M182.58,102.22a15.71,15.71,0,0,0,.14,2.27h-1.55L181,103.3h-.06a3.51,3.51,0,0,1-2.9,1.41,2.71,2.71,0,0,1-2.91-2.72c0-2.3,2-3.55,5.71-3.54v-.2a2,2,0,0,0-2.16-2.2,4.61,4.61,0,0,0-2.49.71l-.39-1.16a6.11,6.11,0,0,1,3.13-.83c2.94,0,3.63,2,3.63,3.89Zm-1.68-2.57c-1.89,0-4,.29-4,2.14a1.51,1.51,0,0,0,1.61,1.65,2.38,2.38,0,0,0,2.33-1.59,1.56,1.56,0,0,0,.09-.55Z"/><path class="cls-1" d="M191.27,90.57H193v13.92h-1.72Z"/><path class="cls-1" d="M198.46,91l-1.73,2.8h1.21l2.39-2.8Zm0,13.45V95h-1.73v9.49Z"/><path class="cls-1" d="M210.41,90.57V102c0,.84,0,1.8.07,2.44h-1.55l-.07-1.64h0a3.47,3.47,0,0,1-3.21,1.87c-2.3,0-4.08-1.94-4.08-4.83,0-3.18,2-5.11,4.25-5.11a3.16,3.16,0,0,1,2.87,1.44h0V90.57Zm-1.73,8.3a3.24,3.24,0,0,0-.08-.75,2.54,2.54,0,0,0-2.49-2c-1.79,0-2.85,1.57-2.85,3.65s1,3.53,2.8,3.53a2.61,2.61,0,0,0,2.53-2.06,3,3,0,0,0,.08-.74Z"/><path class="cls-1" d="M215.14,100a3,3,0,0,0,3.24,3.3,6.7,6.7,0,0,0,2.63-.47l.31,1.21a7.87,7.87,0,0,1-3.18.61,4.42,4.42,0,0,1-4.66-4.79c0-2.88,1.7-5.14,4.46-5.14,3.1,0,3.91,2.72,3.91,4.46a4.19,4.19,0,0,1-.07.82Zm5-1.24c0-1.08-.44-2.8-2.37-2.8a2.84,2.84,0,0,0-2.64,2.8Z"/><path class="cls-1" d="M224.88,98c0-1.12,0-2.08-.08-3h1.52l.08,1.87h.06a2.86,2.86,0,0,1,2.65-2.09,1.87,1.87,0,0,1,.47.07v1.61a3.92,3.92,0,0,0-.61,0,2.42,2.42,0,0,0-2.31,2.21,4.9,4.9,0,0,0-.06.81v5.06h-1.72Z"/><circle class="cls-2" cx="298.03" cy="18.47" r="18.47"/><path class="cls-3" d="M310,64s70.51-26.2-29.17-39.43C280.79,24.57,147.07,8.09,0,41l1.22.27S128.24,15.65,254,31.05c0,0,99.25,6.1,31.18,31.76C285.23,62.81,308.77,50.23,310,64Z"/><path class="cls-1" d="M3.37,74a21.25,21.25,0,0,0,9.33,2.32c3.86,0,5.91-1.6,5.91-4.08,0-2.26-1.76-3.65-6.23-5.19C6.19,64.81,2.1,61.38,2.1,55.92c0-6.35,5.36-11.15,14.08-11.15a21.76,21.76,0,0,1,9.49,1.88l-1.88,6.73a17.34,17.34,0,0,0-7.73-1.77c-3.65,0-5.41,1.71-5.41,3.59,0,2.37,2,3.42,6.9,5.3,6.56,2.43,9.6,5.85,9.6,11.14,0,6.24-4.75,11.54-15,11.54A24.21,24.21,0,0,1,1.66,80.86Z"/><path class="cls-1" d="M58.11,73.91c0,3.54.1,6.41.22,8.66H51l-.38-3.81H50.5A9.64,9.64,0,0,1,42,83.19c-5.5,0-9.49-3.42-9.49-11.76V55.6h8.38V70.1c0,3.91,1.27,6.29,4.25,6.29a4.46,4.46,0,0,0,4.2-2.92,4.38,4.38,0,0,0,.34-1.83v-16h8.39Z"/><path class="cls-1" d="M64.84,64.2c0-3.36-.11-6.17-.22-8.6h7.11l.34,3.69h.16A9.35,9.35,0,0,1,80.4,55a7.62,7.62,0,0,1,7.39,4.63h.12a11.69,11.69,0,0,1,3.53-3.3A10.14,10.14,0,0,1,96.56,55c5.2,0,9.11,3.64,9.11,11.69V82.57H97.5V67.95c0-3.91-1.26-6.17-4-6.17a4.17,4.17,0,0,0-3.92,2.92,8.85,8.85,0,0,0-.29,2.09V82.57H81.17V67.46c0-3.37-1.21-5.68-3.91-5.68a4.29,4.29,0,0,0-3.92,3A5.74,5.74,0,0,0,73,66.9V82.57H64.84Z"/><path class="cls-1" d="M112.29,64.2c0-3.36-.1-6.17-.22-8.6h7.12l.33,3.69h.16a9.36,9.36,0,0,1,8.18-4.3,7.65,7.65,0,0,1,7.39,4.63h.11a11.68,11.68,0,0,1,3.53-3.3A10.19,10.19,0,0,1,144,55c5.2,0,9.11,3.64,9.11,11.69V82.57H145V67.95c0-3.91-1.26-6.17-4-6.17a4.17,4.17,0,0,0-3.92,2.92,7.93,7.93,0,0,0-.27,2.09V82.57h-8.17V67.46c0-3.37-1.22-5.68-3.93-5.68a4.3,4.3,0,0,0-3.92,3,5.93,5.93,0,0,0-.33,2.15V82.57h-8.17Z"/><path class="cls-1" d="M163.89,52.06a4.78,4.78,0,1,1,.06,0Zm-4.14,30.51v-27h8.39v27Z"/><path class="cls-1" d="M184.25,48.26V55.6h6v6.18h-6v9.82c0,3.26.83,4.74,3.31,4.74a10.77,10.77,0,0,0,2.49-.21l.06,6.34a17.48,17.48,0,0,1-5.41.72,9,9,0,0,1-6.35-2.32c-1.54-1.6-2.32-4.2-2.32-8V61.77h-3.58V55.6H176V50.52Z"/><path class="cls-4" d="M202.86,71l-4.42,11.7h-5.68l14.45-37.2h6.62l14.52,37.2h-5.87L217.93,71Zm13.94-3.75-4.23-10.7c-.88-2.43-1.52-4.63-2.15-6.79h-.18c-.56,2.16-1.26,4.47-2.08,6.73L204,67.29Z"/><path class="cls-4" d="M258.51,78.82c0,6.18-1.46,9.88-4.36,12.25s-7.32,3.2-11.16,3.2c-3.66,0-7.71-.76-10.16-2.2l1.38-3.75a18.47,18.47,0,0,0,9,2.15c5.67,0,9.85-2.59,9.85-9.38V78.16h-.13c-1.64,2.48-5,4.47-9.72,4.47a12.66,12.66,0,0,1-13-13.07c0-9.05,6.76-14.13,13.82-14.13,5.29,0,8.14,2.37,9.54,4.58h.12l.19-4h4.93a71.27,71.27,0,0,0-.25,7.28ZM253,66.52a5.79,5.79,0,0,0-.32-2.15,7.8,7.8,0,0,0-7.75-5.19c-5.3,0-9.08,3.92-9.08,10.15,0,5.19,3.09,9.6,9,9.6a7.91,7.91,0,0,0,7.7-5,6.81,6.81,0,0,0,.45-2.59Z"/><path class="cls-4" d="M266.46,64.37c0-3.15-.08-5.85-.25-8.34h4.85l.26,5.24h.19A9.11,9.11,0,0,1,280,55.43a6.19,6.19,0,0,1,1.52.16v4.52c-.63-.05-1.2-.11-2-.11a7.42,7.42,0,0,0-7.45,6.18,15.46,15.46,0,0,0-.18,2.32V82.74h-5.57Z"/><path class="cls-4" d="M297.83,83.35c-8.2,0-14.64-5.3-14.64-13.74,0-8.94,6.75-14.18,15.15-14.18,8.78,0,14.7,5.57,14.7,13.68,0,9.93-7.89,14.24-15.14,14.24Zm.19-3.64c5.31,0,9.27-4.37,9.27-10.43,0-4.52-2.58-10.2-9.15-10.2s-9.33,5.29-9.33,10.37c0,5.85,3.78,10.27,9.16,10.27Z"/></g></g></svg>